<svg xmlns="http://www.w3.org/2000/svg" xmlns:xlink="http://www.w3.org/1999/xlink"><symbol id="icon-close" viewBox="0 0 357 357"><path d="M357 35.7L321.3 0 178.5 142.8 35.7 0 0 35.7l142.8 142.8L0 321.3 35.7 357l142.8-142.8L321.3 357l35.7-35.7-142.8-142.8z"/></symbol><symbol id="icon-coffee" viewBox="0 0 512 512"><path d="M422 210.74v-30H30v75c0 69.753 36.768 131.036 92.109 166H0v15c0 41.355 33.645 75 75 75h302c41.355 0 75-33.645 75-75v-15H329.891c13.343-8.43 25.57-18.374 36.824-30H407c57.897 0 105-47.551 105-106v-75h-90zm-2.57 241c-6.191 17.461-22.874 30-42.43 30H75c-19.556 0-36.239-12.539-42.43-30h386.86zm-193.43-30c-91.533 0-166-74.467-166-166v-45h332v45c0 91.533-74.467 166-166 166zm256-136c0 41.907-33.645 76-75 76h-16.361c20.408-31.403 31.361-67.913 31.361-106v-15h60v45zM160.07.26l-16.641 24.962c5.958 3.972 9.375 10.358 9.375 17.519 0 7.161-3.417 13.547-9.375 17.519-14.236 9.491-22.735 25.559-22.735 42.981s8.5 33.49 22.735 42.98l16.641-24.962c-5.958-3.972-9.376-10.54-9.376-18.019s3.417-14.046 9.376-18.019c14.236-9.491 22.735-25.372 22.735-42.481S174.306 9.75 160.07.26zm75 0l-16.641 24.962c5.958 3.972 9.375 10.358 9.375 17.519 0 7.161-3.417 13.547-9.375 17.519-14.236 9.491-22.735 25.559-22.735 42.981s8.5 33.49 22.735 42.98l16.641-24.962c-5.958-3.972-9.376-10.54-9.376-18.019s3.417-14.046 9.376-18.019c14.236-9.491 22.735-25.372 22.735-42.481S249.306 9.75 235.07.26zm76 0l-16.641 24.962c5.958 3.972 9.375 10.358 9.375 17.519 0 7.161-3.417 13.547-9.375 17.519-14.236 9.491-22.735 25.559-22.735 42.981s8.5 33.49 22.735 42.98l16.641-24.962c-5.958-3.972-9.376-10.54-9.376-18.019s3.417-14.046 9.376-18.019c14.236-9.491 22.735-25.372 22.735-42.481S325.306 9.75 311.07.26z"/></symbol><symbol id="icon-github" viewBox="0 0 512 512"><path d="M256 0C115.3 0 0 116.3 0 257c0 139.883 114.25 255 256 255 141.574 0 256-114.945 256-255C512 116.3 396.7 0 256 0zm45 477.5c-14.398 3-29.7 4.5-45 4.5s-30.602-1.5-45-4.5v-70.2c0-16.8 4.5-22.8 10.5-30.902 3.055-3.492 4.898-6.625 18.598-27.296L217 345.5c-59.402-8.7-82.8-39.602-92.102-63.602-12-32.097-5.699-72.3 15.903-97.796 3.3-3.903 6-10.504 3.601-17.403-4.504-13.8-3.902-35.699-.902-44.101 15.906 2.273 32.262 13.668 45.902 21.902 6.286 3.668 9.582 2.7 12.598 3 10.96-2.281 28.059-7.8 54.3-7.8 16.2 0 33.302 2.398 50.102 7.198 3.004-.07 7.832 2.485 16.2-2.398 14.257-8.687 30.058-19.691 45.898-21.902 3 8.402 3.602 30.3-.898 44.101-2.403 6.899.296 13.5 3.601 17.403 21.598 25.5 27.899 65.699 15.899 97.796-9.301 24-32.7 54.903-92.102 63.602l-23.098 3.602c14.16 21.367 15.653 23.93 18.602 27.296C296.5 384.5 301 390.5 301 407.301zm30-8.7v-61.5c0-17.1-3.602-28.5-8.402-36.902 45.601-12.296 78.004-39.3 92.402-78 15.3-40.796 8.402-89.398-17.102-123 4.504-20.097 4.504-52.199-6.296-67.199C386.8 95.602 380.199 92 371.8 92h-.301c-23.262 1.258-41.57 12.973-61.2 24.898-18-4.8-36.3-7.199-54.6-7.199-18.598 0-37.2 2.7-53.696 7.2C181.34 104.437 163.207 93.226 139.3 92c-7.5 0-14.102 3.602-18.903 10.2-10.796 15-10.796 47.1-6.296 67.198-25.504 33.602-32.403 82.5-17.102 123 14.398 38.7 46.8 65.704 92.402 78-3.722 6.512-6.668 14.915-7.828 26.286-9.21 3.175-17.199 4.21-24.629 2.027-7.836-2.316-13.941-7.547-19.246-16.469-11.914-20.015-32.207-36.355-55.312-34.23l2.636 29.883c10.7-.98 21.348 10.34 26.88 19.671 9.124 15.368 21.417 25.446 36.546 29.914 11.23 3.31 21.496 3.23 32.551.872V468.8C93.7 438.199 30 354.8 30 257 30 132.8 131.8 30 256 30s226 102.8 226 227c0 97.8-63.7 181.2-151 211.8zm0 0"/></symbol><symbol id="icon-instagram" viewBox="0 0 512 512"><path d="M75 512h362c41.355 0 75-33.645 75-75V75c0-41.355-33.645-75-75-75H75C33.645 0 0 33.645 0 75v362c0 41.355 33.645 75 75 75zM30 75c0-24.813 20.188-45 45-45h362c24.813 0 45 20.188 45 45v362c0 24.813-20.188 45-45 45H75c-24.813 0-45-20.188-45-45zm0 0"/><path d="M256 391c74.438 0 135-60.563 135-135s-60.563-135-135-135-135 60.563-135 135 60.563 135 135 135zm0-240c57.898 0 105 47.102 105 105s-47.102 105-105 105-105-47.102-105-105 47.102-105 105-105zm150 0c24.813 0 45-20.188 45-45s-20.188-45-45-45-45 20.188-45 45 20.188 45 45 45zm0-60c8.27 0 15 6.73 15 15s-6.73 15-15 15-15-6.73-15-15 6.73-15 15-15zm0 0"/></symbol><symbol id="icon-telegram" viewBox="1 -35 512 511"><path d="M121.453 253.172l63.555 158.887 82.75-82.754 141.535 112.504L512 .5 0 205.98zm-39.933-47.64l244.046-97.946-194.074 117.363zm287.535-89.25l-161.98 148.187-19.485 73.426-36.035-90.086zm-149.852 219.23l9.817-36.996 15.144 12.035zm171.656 53.394L243.473 271.754 465.375 68.746zm0 0"/></symbol></svg>