<?xml version="1.0" encoding="iso-8859-1"?>
<!-- Generator: Adobe Illustrator 19.0.0, SVG Export Plug-In . SVG Version: 6.00 Build 0)  -->
<svg version="1.1" id="Capa_1" xmlns="http://www.w3.org/2000/svg" xmlns:xlink="http://www.w3.org/1999/xlink" x="0px" y="0px"
	 viewBox="0 0 512 512" style="enable-background:new 0 0 512 512;" xml:space="preserve">
<g>
	<g>
		<path d="M422,210.74v-30H30v75c0,69.753,36.768,131.036,92.109,166H0v15c0,41.355,33.645,75,75,75h302c41.355,0,75-33.645,75-75
			v-15H329.891c13.343-8.43,25.57-18.374,36.824-30H407c57.897,0,105-47.551,105-106v-75H422z M419.43,451.74
			c-6.191,17.461-22.874,30-42.43,30H75c-19.556,0-36.239-12.539-42.43-30H419.43z M226,421.74c-91.533,0-166-74.467-166-166v-45
			h332v45C392,347.273,317.533,421.74,226,421.74z M482,285.74c0,41.907-33.645,76-75,76h-16.361
			c20.408-31.403,31.361-67.913,31.361-106v-15h60V285.74z"/>
	</g>
</g>
<g>
	<g>
		<path d="M160.07,0.26l-16.641,24.962c5.958,3.972,9.375,10.358,9.375,17.519c0,7.161-3.417,13.547-9.375,17.519
			c-14.236,9.491-22.735,25.559-22.735,42.981s8.5,33.49,22.735,42.98l16.641-24.962c-5.958-3.972-9.376-10.54-9.376-18.019
			s3.417-14.046,9.376-18.019c14.236-9.491,22.735-25.372,22.735-42.481S174.306,9.75,160.07,0.26z"/>
	</g>
</g>
<g>
	<g>
		<path d="M235.07,0.26l-16.641,24.962c5.958,3.972,9.375,10.358,9.375,17.519c0,7.161-3.417,13.547-9.375,17.519
			c-14.236,9.491-22.735,25.559-22.735,42.981s8.5,33.49,22.735,42.98l16.641-24.962c-5.958-3.972-9.376-10.54-9.376-18.019
			s3.417-14.046,9.376-18.019c14.236-9.491,22.735-25.372,22.735-42.481S249.306,9.75,235.07,0.26z"/>
	</g>
</g>
<g>
	<g>
		<path d="M311.07,0.26l-16.641,24.962c5.958,3.972,9.375,10.358,9.375,17.519c0,7.161-3.417,13.547-9.375,17.519
			c-14.236,9.491-22.735,25.559-22.735,42.981s8.5,33.49,22.735,42.98l16.641-24.962c-5.958-3.972-9.376-10.54-9.376-18.019
			s3.417-14.046,9.376-18.019c14.236-9.491,22.735-25.372,22.735-42.481S325.306,9.75,311.07,0.26z"/>
	</g>
</g>
<g>
</g>
<g>
</g>
<g>
</g>
<g>
</g>
<g>
</g>
<g>
</g>
<g>
</g>
<g>
</g>
<g>
</g>
<g>
</g>
<g>
</g>
<g>
</g>
<g>
</g>
<g>
</g>
<g>
</g>
</svg>
